<svg width="63" height="82" viewBox="0 0 63 82" fill="none" xmlns="http://www.w3.org/2000/svg">
<path d="M15.8948 16.4157L1 19.0584V81L18.1771 76.956L31.3102 81L44.4432 76.956L61.6203 81V19.0584L46.7255 16.4157" stroke="black" stroke-linecap="round" stroke-linejoin="round"/>
<path d="M32.4314 26.7455L39.7987 7.92682L20.98 15.2941L28.9079 18.8177L32.4314 26.7455Z" stroke="black" stroke-linecap="round" stroke-linejoin="round"/>
<path d="M28.9077 18.8177L33.7125 13.9729" stroke="black" stroke-linecap="round" stroke-linejoin="round"/>
<path d="M46.7252 16.4153C46.7252 24.9038 39.7983 31.8307 31.3099 31.8307C22.8214 31.8307 15.8945 24.9038 15.8945 16.4153C15.8945 7.92689 22.8214 1 31.3099 1C39.7983 1 46.7252 7.88685 46.7252 16.4153Z" stroke="black" stroke-linecap="round" stroke-linejoin="round"/>
<path d="M23.2944 63.452C23.2944 61.3303 21.5617 59.5975 19.4399 59.5975C17.3182 59.5975 15.5854 61.3303 15.5854 63.452C15.5854 65.5737 17.3182 67.3065 19.4399 67.3065C21.5617 67.3065 23.2944 65.5737 23.2944 63.452Z" stroke="black" stroke-linecap="round"/>
<path d="M47.3411 63.452C47.3411 61.3303 45.6083 59.5975 43.4866 59.5975C41.3648 59.5975 39.6321 61.3303 39.6321 63.452C39.6321 65.5737 41.3648 67.3065 43.4866 67.3065C45.6083 67.3065 47.3411 65.5737 47.3411 63.452Z" stroke="black" stroke-linecap="round"/>
<path d="M15.5852 63.4515H11.3417C10.0333 63.4515 9.00781 62.3907 9.00781 61.0823V39.7941C9.00781 38.2735 10.2455 37.0359 11.7307 37.0359H40.7632C42.2838 37.0359 43.4861 38.2735 43.4861 39.7941V59.5617" stroke="black" stroke-linecap="round"/>
<path d="M23.2944 63.4523H39.6318" stroke="black" stroke-linecap="round"/>
<path d="M49.6741 56.8037H54.5894" stroke="black" stroke-linecap="round"/>
<path d="M43.4866 45.0986H49.0738C50.7359 45.0986 51.5846 46.0887 52.2211 47.8922C53.4941 51.6052 54.944 55.9902 54.944 61.3653V63.4516H47.3057" stroke="black" stroke-linecap="round"/>
<path d="M49.3216 47.61C49.3216 47.61 49.2508 47.5747 49.1094 47.5747H46.634V54.2582H51.5848C51.0897 52.1364 50.4532 50.2976 49.8874 48.7063C49.5337 47.7869 49.3216 47.61 49.3216 47.61Z" fill="#FEC000"/>
</svg>
