<svg width="79" height="82" viewBox="0 0 79 82" fill="none" xmlns="http://www.w3.org/2000/svg">
<path d="M78.499 64.0683C78.499 54.6934 70.8855 47.1367 61.5105 47.1367C52.1924 47.1367 44.5789 54.6934 44.5789 64.0683C44.5789 73.4433 52.1924 81 61.5105 81C70.8855 81 78.499 73.4433 78.499 64.0683Z" stroke="black" stroke-linecap="round"/>
<path d="M54.125 64.0111L60.9431 70.1474L70.8294 58.0452" stroke="black" stroke-linecap="round"/>
<path d="M45.6022 34.182H16.9661" stroke="black" stroke-linecap="round" stroke-linejoin="round"/>
<path d="M45.6022 26.1712H16.9661" stroke="black" stroke-linecap="round" stroke-linejoin="round"/>
<path d="M45.8856 80.2612H6.22681V73.9544" stroke="black" stroke-linecap="round" stroke-linejoin="round"/>
<path d="M61.5103 7.0799H67.8738V42.4205" stroke="black" stroke-linecap="round" stroke-linejoin="round"/>
<path d="M61.5104 42.4201V1H45.8855" stroke="black" stroke-linecap="round" stroke-linejoin="round"/>
<path d="M45.886 1H1V73.9539H41.1701" stroke="black" stroke-linecap="round" stroke-linejoin="round"/>
<path d="M38.6703 4.46649V5.65966C38.6703 6.7392 37.7044 7.64828 36.6817 7.64828H25.8863C24.75 7.64828 23.8977 6.7392 23.8977 5.65966V4.46649" stroke="black" stroke-linecap="round" stroke-linejoin="round"/>
<path d="M19.9202 69.9199L5.03394 55.0337V69.9199H19.9202Z" fill="#FEC000"/>
</svg>
