<svg width="139" height="33" viewBox="0 0 139 33" fill="none" xmlns="http://www.w3.org/2000/svg">
<path d="M135.785 32.689H134.5L139 28.3685V29.6077L135.785 32.689Z" fill="black" fill-opacity="0.1"/>
<path d="M129.379 32.689H128.093L139 22.2058V23.445L129.379 32.689Z" fill="black" fill-opacity="0.1"/>
<path d="M122.949 32.689H121.664L139 16.0766V17.2823L122.949 32.689Z" fill="black" fill-opacity="0.1"/>
<path d="M116.521 32.689H115.235L139 9.91391V11.1531L116.521 32.689Z" fill="black" fill-opacity="0.1"/>
<path d="M110.114 32.689H108.828L139 3.75123V4.99046L110.114 32.689Z" fill="black" fill-opacity="0.1"/>
<path d="M103.685 32.689H102.399L136.517 3.05176e-05H137.781L103.685 32.689Z" fill="black" fill-opacity="0.1"/>
<path d="M97.2555 32.689H95.9697L130.088 3.05176e-05H131.374L97.2555 32.689Z" fill="black" fill-opacity="0.1"/>
<path d="M90.8268 32.689H89.541L123.659 3.05176e-05H124.945L90.8268 32.689Z" fill="black" fill-opacity="0.1"/>
<path d="M84.4196 32.689H83.1338L117.23 3.05176e-05H118.516L84.4196 32.689Z" fill="black" fill-opacity="0.1"/>
<path d="M77.9909 32.689H76.7051L110.823 3.05176e-05H112.109L77.9909 32.689Z" fill="black" fill-opacity="0.1"/>
<path d="M71.5617 32.689H70.2759L104.394 3.05176e-05H105.68L71.5617 32.689Z" fill="black" fill-opacity="0.1"/>
<path d="M65.155 32.689H63.8691L97.9652 3.05176e-05H99.251L65.155 32.689Z" fill="black" fill-opacity="0.1"/>
<path d="M58.7258 32.689H57.4399L91.5581 3.05176e-05H92.8439L58.7258 32.689Z" fill="black" fill-opacity="0.1"/>
<path d="M52.297 32.689H51.0112L85.1294 3.05176e-05H86.4152L52.297 32.689Z" fill="black" fill-opacity="0.1"/>
<path d="M45.8898 32.689H44.604L78.7 3.05176e-05H79.9858L45.8898 32.689Z" fill="black" fill-opacity="0.1"/>
<path d="M39.4611 32.689H38.1753L72.2935 3.05176e-05H73.5793L39.4611 32.689Z" fill="black" fill-opacity="0.1"/>
<path d="M33.0319 32.689H31.7461L65.8643 3.05176e-05H67.1501L33.0319 32.689Z" fill="black" fill-opacity="0.1"/>
<path d="M26.6252 32.689H25.3394L59.4354 3.05176e-05H60.7212L26.6252 32.689Z" fill="black" fill-opacity="0.1"/>
<path d="M20.196 32.689H18.9102L53.0283 3.05176e-05H54.292L20.196 32.689Z" fill="black" fill-opacity="0.1"/>
<path d="M13.7668 32.689H12.481L46.5991 3.05176e-05H47.8849L13.7668 32.689Z" fill="black" fill-opacity="0.1"/>
<path d="M7.33806 32.689H6.05225L40.1704 3.05176e-05H41.4562L7.33806 32.689Z" fill="black" fill-opacity="0.1"/>
<path d="M0.931103 32.689H0V32.3206L33.7413 3.05176e-05H35.0271L0.931103 32.689Z" fill="black" fill-opacity="0.1"/>
<path d="M0 27.3972V26.1914L27.3344 2.47955e-05H28.6202L0 27.3972Z" fill="black" fill-opacity="0.1"/>
<path d="M0 21.268V20.0287L20.9054 3.24249e-05H22.1912L0 21.268Z" fill="black" fill-opacity="0.1"/>
<path d="M0 15.1053V13.8661L14.4764 2.00272e-05H15.7622L0 15.1053Z" fill="black" fill-opacity="0.1"/>
<path d="M0 8.94263V7.70339L8.06954 3.91006e-05H9.35534L0 8.94263Z" fill="black" fill-opacity="0.1"/>
<path d="M0 2.77994V1.57419L1.64051 2.74181e-05H2.92632L0 2.77994Z" fill="black" fill-opacity="0.1"/>
</svg>
