<svg width="257" height="40" viewBox="0 0 257 40" fill="none" xmlns="http://www.w3.org/2000/svg">
<g opacity="0.1">
<path d="M251.1 0H248.7L257 5.3V3.8L251.1 0Z" fill="white"/>
<path d="M239.2 0H236.8L257 12.8V11.3L239.2 0Z" fill="white"/>
<path d="M227.3 0H224.9L257 20.3V18.8L227.3 0Z" fill="white"/>
<path d="M215.4 0H213.1L257 27.9V26.4L215.4 0Z" fill="white"/>
<path d="M203.6 0H201.2L257 35.4V33.9L203.6 0Z" fill="white"/>
<path d="M191.7 0H189.3L252.4 40H254.8L191.7 0Z" fill="white"/>
<path d="M179.8 0H177.4L240.5 40H242.9L179.8 0Z" fill="white"/>
<path d="M167.9 0H165.6L228.6 40H231L167.9 0Z" fill="white"/>
<path d="M156.1 0H153.7L216.8 40H219.1L156.1 0Z" fill="white"/>
<path d="M144.2 0H141.8L204.9 40H207.3L144.2 0Z" fill="white"/>
<path d="M132.3 0H130L193 40H195.4L132.3 0Z" fill="white"/>
<path d="M120.5 0H118.1L181.1 40H183.5L120.5 0Z" fill="white"/>
<path d="M108.6 0H106.2L169.3 40H171.6L108.6 0Z" fill="white"/>
<path d="M96.7 0H94.3L157.4 40H159.8L96.7 0Z" fill="white"/>
<path d="M84.8 0H82.5L145.5 40H147.9L84.8 0Z" fill="white"/>
<path d="M73.0001 0H70.6001L133.6 40H136L73.0001 0Z" fill="white"/>
<path d="M61.1 0H58.7L121.8 40H124.1L61.1 0Z" fill="white"/>
<path d="M49.2 0H46.8L109.9 40H112.3L49.2 0Z" fill="white"/>
<path d="M37.3 0H35L98 40H100.4L37.3 0Z" fill="white"/>
<path d="M25.5001 0H23.1001L86.2001 40H88.5001L25.5001 0Z" fill="white"/>
<path d="M13.6 0H11.2L74.3 40H76.7L13.6 0Z" fill="white"/>
<path d="M1.69995 0H0V0.399994L62.4 40H64.8L1.69995 0Z" fill="white"/>
<path d="M0 6.40002V8.00003L50.5 40H52.9L0 6.40002Z" fill="white"/>
<path d="M0 14V15.5L38.7 40H41L0 14Z" fill="white"/>
<path d="M0 21.5V23L26.8 40H29.2L0 21.5Z" fill="white"/>
<path d="M0 29V30.5L14.9 40H17.3L0 29Z" fill="white"/>
<path d="M0 36.6V38.1L3 40H5.40002L0 36.6Z" fill="white"/>
</g>
</svg>
