<svg width="81" height="82" viewBox="0 0 81 82" fill="none" xmlns="http://www.w3.org/2000/svg">
<path d="M37.9805 22.2985C37.9805 22.2985 38.9341 13.7156 42.3249 10.06C44.4441 7.83476 49.7422 7.4639 52.974 6.77515C57.0005 5.87448 59.5966 5.23871 65.3715 5.23871H71.1464" stroke="black" stroke-linecap="round"/>
<path d="M65.7952 15.4636H71.1462" stroke="black" stroke-linecap="round"/>
<path d="M80.0472 1H72.524C71.7293 1 71.1465 1.58279 71.1465 2.3775V18.0068C71.1465 18.7485 71.7293 19.3313 72.524 19.3313H80.0472" stroke="black" stroke-linecap="round"/>
<path d="M39.7292 34.642C39.7292 36.2314 41.0538 37.503 42.6432 37.503C44.1796 37.503 45.5041 36.2314 45.5041 34.642C45.5041 33.0526 44.2856 32.3108 42.6432 31.781C41.1067 31.3042 39.7292 30.5095 39.7292 28.9201C39.7292 28.0194 40.1531 27.2247 40.8418 26.6949" stroke="black" stroke-linecap="round"/>
<path d="M42.6421 37.5031V39.1446" stroke="black" stroke-linecap="round"/>
<path d="M44.9734 21.5026C44.1787 21.3436 43.437 21.2377 42.6423 21.2377C36.8144 21.2377 32.0991 25.953 32.0991 31.7808C32.0991 37.6087 36.8144 42.324 42.6423 42.324C48.4172 42.324 53.1325 37.6087 53.1325 31.7808C53.1325 30.7212 52.9735 29.7146 52.7086 28.7609" stroke="black" stroke-linecap="round"/>
<path d="M65.7951 15.4636C64.3646 15.4636 63.146 16.3113 62.6162 17.5828C61.8215 19.4371 60.0732 22.0862 55.9407 23.7816C54.6161 24.3114 53.3446 24.8942 52.179 25.6359C50.9605 26.3776 49.477 27.5432 48.0995 28.4439C46.5631 29.4505 45.6094 29.5565 44.6028 28.4439C44.5498 28.4439 44.5498 28.3909 44.5498 28.3909C43.7551 27.4372 43.914 26.0068 44.9207 25.265C46.5101 24.0465 48.8412 22.4041 50.9605 19.4371C51.7022 18.4835 51.0135 17.106 49.7419 17.106C49.7419 17.106 47.4637 16.8941 45.6624 19.0133" stroke="black" stroke-linecap="round"/>
<path d="M40.0994 75.6489C40.0994 72.682 42.4835 70.2979 45.4504 70.2979C48.4173 70.2979 50.8015 72.682 50.8015 75.6489C50.8015 78.6159 48.4173 81 45.4504 81C42.4835 81 40.0994 78.6159 40.0994 75.6489Z" stroke="black"/>
<path d="M53.0273 71.7813C54.034 70.8277 55.3055 70.2979 56.789 70.2979C59.7559 70.2979 62.14 72.682 62.14 75.6489C62.14 78.6159 59.7559 81 56.789 81C55.3585 81 54.034 80.4172 53.0273 79.4635" stroke="black" stroke-linecap="round"/>
<path d="M18.5896 41.6888H12.126C9.05307 41.6888 5.76826 43.4902 4.54971 46.8279C2.21856 53.6625 1 62.0334 1 69.2388V73.1064H7.41067" stroke="black" stroke-linecap="round"/>
<path d="M66.5906 73.0529H68.286C70.3522 73.0529 72.1006 71.3575 72.1006 69.2383V62.9866H22.6696C20.4444 62.9866 18.5901 61.6091 18.5901 58.3242" stroke="black" stroke-linecap="round"/>
<path d="M6.72241 75.6489C6.72241 72.682 9.15953 70.2979 12.0735 70.2979C15.0404 70.2979 17.4775 72.682 17.4775 75.6489C17.4775 78.6159 15.0404 81 12.0735 81C9.10654 81 6.72241 78.6159 6.72241 75.6489Z" stroke="black"/>
<path d="M36.1786 73.053H21.45" stroke="black" stroke-linecap="round"/>
<path d="M28.8686 30.9866H15.7293C14.4048 30.9866 13.2922 32.0462 13.2922 33.4237C13.2922 34.7482 14.4048 35.8608 15.7293 35.8608H20.6036C22.7758 35.8608 24.4712 37.6092 24.4712 39.7284V56.2584C24.4712 56.7882 24.895 57.1591 25.3718 57.1591H73.3194L77.7168 33.5827C77.9817 32.2581 76.9221 31.0396 75.5976 31.0396H56.7364" stroke="black" stroke-linecap="round"/>
<path d="M18.5901 41.6888V58.3248" stroke="black" stroke-linecap="round"/>
<path d="M73.8487 34.5359H64.683C64.8419 35.3836 65.0009 36.2843 65.1068 37.185C65.3718 39.993 65.1598 42.9069 63.9943 45.503C62.6697 48.4699 60.1796 50.854 57.3717 52.4964C56.7359 52.8673 56.0471 53.2381 55.4114 53.556H70.299L73.8487 34.5359Z" fill="#FEC000"/>
</svg>
