<svg width="96" height="82" viewBox="0 0 96 82" fill="none" xmlns="http://www.w3.org/2000/svg">
<path d="M73.3889 48.5733C73.3889 58.5035 65.3334 66.5776 55.3846 66.5776C45.4544 66.5776 37.3989 58.5035 37.3989 48.5733C37.3989 38.6246 45.4544 30.5691 55.3846 30.5691C65.3334 30.5691 73.3889 38.6246 73.3889 48.5733Z" stroke="black" stroke-linecap="round" stroke-linejoin="round"/>
<path d="M55.3845 30.5691V39.8125" stroke="black" stroke-linecap="round" stroke-linejoin="round"/>
<path d="M42.6509 35.8401L49.2029 42.3922" stroke="black" stroke-linecap="round" stroke-linejoin="round"/>
<path d="M37.3799 48.5737H46.6233" stroke="black" stroke-linecap="round" stroke-linejoin="round"/>
<path d="M42.6509 61.3063L49.2029 54.7728" stroke="black" stroke-linecap="round" stroke-linejoin="round"/>
<path d="M55.3845 66.596V57.334" stroke="black" stroke-linecap="round" stroke-linejoin="round"/>
<path d="M68.1172 61.3063L61.5837 54.7728" stroke="black" stroke-linecap="round" stroke-linejoin="round"/>
<path d="M73.3887 48.5737H64.1267" stroke="black" stroke-linecap="round" stroke-linejoin="round"/>
<path d="M68.1172 35.8401L61.5837 42.3922" stroke="black" stroke-linecap="round" stroke-linejoin="round"/>
<path d="M59.5976 48.5737C59.5976 50.8938 57.7044 52.7685 55.3843 52.7685C53.0641 52.7685 51.1895 50.8938 51.1895 48.5737C51.1895 46.2536 53.0641 44.3603 55.3843 44.3603C57.7044 44.3603 59.5976 46.235 59.5976 48.5737Z" stroke="black" stroke-linecap="round" stroke-linejoin="round"/>
<path d="M37.38 75.5239C28.6748 69.7143 22.958 59.8027 22.958 48.5732C22.958 34.9308 31.3848 23.2744 43.301 18.4857L85.6203 1.16814C86.8082 0.685551 88.1446 1.27951 88.5901 2.46742L95.2164 20.3974C95.699 21.6967 94.9194 23.1074 93.5459 23.3858L71.5695 27.7291C68.4884 28.3416 65.797 30.1791 64.108 32.8519" stroke="black" stroke-linecap="round" stroke-linejoin="round"/>
<path d="M81.7042 29.6592C85.6577 35.1533 87.9407 41.9466 87.7922 49.2783C87.421 67.0227 73.1289 80.9806 55.3845 80.9806" stroke="black" stroke-linecap="round" stroke-linejoin="round"/>
<path d="M85.5279 5.4563L78.2705 8.42608L83.0964 21.456L90.8735 19.9154L85.5279 5.4563Z" fill="#FEC000"/>
<path d="M19.1528 35.1912H1V42.3744H4.84215V49.5204H1V56.5551H4.84215V63.4227H1V70.4573H17.9463C20.7305 70.4573 22.9763 72.7218 22.9763 75.5059" stroke="black" stroke-linecap="round" stroke-linejoin="round"/>
<path d="M55.384 81H13.8813V75.5245H29.417" stroke="black" stroke-linecap="round" stroke-linejoin="round"/>
<path d="M33.4454 24.704L27.5244 18.7644H21.2508C12.1744 18.7644 4.84277 26.1332 4.84277 35.191" stroke="black" stroke-linecap="round" stroke-linejoin="round"/>
</svg>
